<?xml version="1.0" encoding="UTF-8" standalone="no"?>
<svg
   xmlns:dc="http://purl.org/dc/elements/1.1/"
   xmlns:cc="http://creativecommons.org/ns#"
   xmlns:rdf="http://www.w3.org/1999/02/22-rdf-syntax-ns#"
   xmlns:svg="http://www.w3.org/2000/svg"
   xmlns="http://www.w3.org/2000/svg"
   xmlns:sodipodi="http://sodipodi.sourceforge.net/DTD/sodipodi-0.dtd"
   xmlns:inkscape="http://www.inkscape.org/namespaces/inkscape"
   sodipodi:docname="logo.svg"
   inkscape:version="1.0 (4035a4fb49, 2020-05-01)"
   id="svg8"
   version="1.1"
   viewBox="0 0 31.749999 31.750001"
   height="120"
   width="120">
  <defs
     id="defs2" />
  <sodipodi:namedview
     inkscape:window-maximized="1"
     inkscape:window-y="-8"
     inkscape:window-x="-8"
     inkscape:window-height="987"
     inkscape:window-width="1680"
     units="px"
     showgrid="false"
     inkscape:document-rotation="0"
     inkscape:current-layer="layer1"
     inkscape:document-units="mm"
     inkscape:cy="63.177818"
     inkscape:cx="65.251655"
     inkscape:zoom="5.6"
     inkscape:pageshadow="2"
     inkscape:pageopacity="0.0"
     borderopacity="1.0"
     bordercolor="#666666"
     pagecolor="#ffffff"
     id="base" />
  <metadata
     id="metadata5">
    <rdf:RDF>
      <cc:Work
         rdf:about="">
        <dc:format>image/svg+xml</dc:format>
        <dc:type
           rdf:resource="http://purl.org/dc/dcmitype/StillImage" />
        <dc:title></dc:title>
      </cc:Work>
    </rdf:RDF>
  </metadata>
  <g
     id="layer1"
     inkscape:groupmode="layer"
     inkscape:label="Layer 1">
    <path
       transform="scale(0.26458333)"
       d="m 20.535156,7.5 c -2.572144,0 -4.642578,2.0704337 -4.642578,4.642578 V 107.5 c 0,2.57214 2.070434,4.64258 4.642578,4.64258 h 78.929688 c 2.572146,0 4.642576,-2.07044 4.642576,-4.64258 V 12.142578 C 104.10742,9.5704337 102.03699,7.5 99.464844,7.5 Z M 25,14.285156 h 69.642578 c 2.572146,0 4.642578,2.070434 4.642578,4.642578 v 20.179688 c 0,2.572146 -2.070432,4.642578 -4.642578,4.642578 H 25 c -2.572144,0 -4.642578,-2.070432 -4.642578,-4.642578 V 18.927734 c 0,-2.572144 2.070434,-4.642578 4.642578,-4.642578 z M 91.427734,52.142578 H 95 c 2.572146,0 4.642578,2.070436 4.642578,4.642578 v 4.642578 c 0,2.572143 -2.070432,4.644532 -4.642578,4.644532 h -3.572266 c -2.572146,0 -4.642578,-2.072389 -4.642578,-4.644532 v -4.642578 c 0,-2.572142 2.070432,-4.642578 4.642578,-4.642578 z M 74.822266,52.5 h 3.570312 c 2.572146,0 4.642578,2.070436 4.642578,4.642578 v 4.642578 c 0,2.572143 -2.070432,4.642578 -4.642578,4.642578 h -3.570312 c -2.572143,0 -4.644532,-2.070435 -4.644532,-4.642578 v -4.642578 c 0,-2.572142 2.072389,-4.642578 4.644532,-4.642578 z m -16.78711,0.714844 h 3.572266 c 2.572142,0 4.642578,2.070436 4.642578,4.642578 V 62.5 c 0,2.572146 -2.070436,4.642578 -4.642578,4.642578 h -3.572266 c -2.572146,0 -4.642578,-2.070432 -4.642578,-4.642578 v -4.642578 c 0,-2.572142 2.070432,-4.642578 4.642578,-4.642578 z m -17.142578,0.177734 h 3.572266 c 2.572142,0 4.642578,2.070432 4.642578,4.642578 v 4.642578 c 0,2.572147 -2.070436,4.644532 -4.642578,4.644532 h -3.572266 c -2.572146,0 -4.642578,-2.072385 -4.642578,-4.644532 v -4.642578 c 0,-2.572146 2.070432,-4.642578 4.642578,-4.642578 z M 24.464844,53.75 h 3.570312 c 2.572145,0 4.642578,2.070432 4.642578,4.642578 v 4.642578 c 0,2.572146 -2.070433,4.642578 -4.642578,4.642578 h -3.570312 c -2.572145,0 -4.642578,-2.070432 -4.642578,-4.642578 v -4.642578 c 0,-2.572146 2.070433,-4.642578 4.642578,-4.642578 z m 52.166015,17.699219 h 17.63086 c 2.783527,0 5.023437,2.23991 5.023437,5.023437 v 22.609375 c 0,2.783529 -2.23991,5.025389 -5.023437,5.025389 h -17.63086 c -2.783527,0 -5.023437,-2.24186 -5.023437,-5.025389 V 76.472656 c 0,-2.783527 2.23991,-5.023437 5.023437,-5.023437 z M 58.125,72.052734 h 3.572266 c 2.572146,0 4.642578,2.072385 4.642578,4.644532 v 4.642578 c 0,2.572146 -2.070432,4.642578 -4.642578,4.642578 H 58.125 c -2.572142,0 -4.642578,-2.070432 -4.642578,-4.642578 v -4.642578 c 0,-2.572147 2.070436,-4.644532 4.642578,-4.644532 z m -17.142578,0.179688 h 3.570312 c 2.572147,0 4.644532,2.070432 4.644532,4.642578 v 4.642578 c 0,2.572146 -2.072385,4.642578 -4.644532,4.642578 h -3.570312 c -2.572142,0 -4.642578,-2.070432 -4.642578,-4.642578 V 76.875 c 0,-2.572146 2.070436,-4.642578 4.642578,-4.642578 z M 24.552734,72.589844 H 28.125 c 2.572145,0 4.642578,2.070432 4.642578,4.642578 V 81.875 c 0,2.572146 -2.070433,4.642578 -4.642578,4.642578 h -3.572266 c -2.572144,0 -4.642578,-2.070432 -4.642578,-4.642578 v -4.642578 c 0,-2.572146 2.070434,-4.642578 4.642578,-4.642578 z m 33.75,18.21289 H 61.875 c 2.572146,0 4.642578,2.072385 4.642578,4.644532 v 4.642574 c 0,2.57215 -2.070432,4.64258 -4.642578,4.64258 h -3.572266 c -2.572142,0 -4.642578,-2.07043 -4.642578,-4.64258 v -4.642574 c 0,-2.572147 2.070436,-4.644532 4.642578,-4.644532 z m -17.142578,0.179688 h 3.572266 c 2.572146,0 4.642578,2.070436 4.642578,4.642578 v 4.64258 c 0,2.57214 -2.070432,4.64258 -4.642578,4.64258 h -3.572266 c -2.572142,0 -4.642578,-2.07044 -4.642578,-4.64258 V 95.625 c 0,-2.572142 2.070436,-4.642578 4.642578,-4.642578 z m -16.427734,0.357422 h 3.570312 c 2.572145,0 4.644532,2.070436 4.644532,4.642578 V 100.625 c 0,2.57214 -2.072387,4.64258 -4.644532,4.64258 h -3.570312 c -2.572145,0 -4.642578,-2.07044 -4.642578,-4.64258 v -4.642578 c 0,-2.572142 2.070433,-4.642578 4.642578,-4.642578 z"
       style="fill:#2a7fff;stroke-width:0.999999;stroke-linecap:square;paint-order:stroke markers fill"
       id="rect833" />
  </g>
</svg>
